OFF 24 36 0
0 0 0 
10 0 0 
20 0 0 
0 0 10 
10 0 10 
20 0 10 
0 10 0 
10 10 0 
20 10 0 
0 10 10 
10 10 10 
20 10 10 
30 0 0 
40 0 0 
50 0 0 
30 0 10 
40 0 10 
50 0 10 
30 10 0 
40 10 0 
50 10 0 
30 10 10 
40 10 10 
50 10 10 
3 4 0 1 255 0 0
3 0 7 1 255 0 0
3 7 4 1 255 0 0
3 0 4 3 255 0 0
3 9 0 3 255 0 0
3 4 9 3 255 0 0
3 7 9 10 255 0 0
3 9 4 10 255 0 0
3 4 7 10 255 0 0
3 7 0 6 255 0 0
3 0 9 6 255 0 0
3 9 7 6 255 0 0
3 18 2 8 0 0 255 127
3 2 11 8 0 0 255 127
3 11 18 8 0 0 255 127
3 15 11 5 0 0 255 127
3 11 2 5 0 0 255 127
3 2 15 5 0 0 255 127
3 15 2 12 0 0 255 127
3 2 18 12 0 0 255 127
3 18 15 12 0 0 255 127
3 15 18 21 0 0 255 127
3 11 15 21 0 0 255 127
3 18 11 21 0 0 255 127
3 17 13 14 249 215 44
3 13 20 14 249 215 44
3 20 17 14 249 215 44
3 13 17 16 249 215 44
3 22 13 16 249 215 44
3 17 22 16 249 215 44
3 20 13 19 249 215 44
3 13 22 19 249 215 44
3 22 20 19 249 215 44
3 17 20 23 249 215 44
3 22 17 23 249 215 44
3 20 22 23 249 215 44
